<?xml version="1.0" encoding="UTF-8"?>
<!DOCTYPE svg PUBLIC "-//W3C//DTD SVG 1.1//EN" "http://www.w3.org/Graphics/SVG/1.1/DTD/svg11.dtd">
<!-- Creator: CorelDRAW -->
<svg xmlns="http://www.w3.org/2000/svg" xml:space="preserve" width="1044px" height="1043px" version="1.1" style="shape-rendering:geometricPrecision; text-rendering:geometricPrecision; image-rendering:optimizeQuality; fill-rule:evenodd; clip-rule:evenodd"
viewBox="0 0 141.09 140.96"
 xmlns:xlink="http://www.w3.org/1999/xlink"
 xmlns:xodm="http://www.corel.com/coreldraw/odm/2003">
 <defs>
  <style type="text/css">
   <![CDATA[
    .str0 {stroke:#F9FBFC;stroke-width:0.54;stroke-miterlimit:22.9256}
    .str4 {stroke:#F9F5F8;stroke-width:0.54;stroke-miterlimit:22.9256}
    .str7 {stroke:#F7F0F3;stroke-width:0.54;stroke-miterlimit:22.9256}
    .str1 {stroke:#F6EAEE;stroke-width:0.54;stroke-miterlimit:22.9256}
    .str2 {stroke:#F9FBFC;stroke-width:1.08;stroke-miterlimit:22.9256}
    .str5 {stroke:#F9F5F8;stroke-width:1.08;stroke-miterlimit:22.9256}
    .str3 {stroke:#F7EDF1;stroke-width:1.08;stroke-miterlimit:22.9256}
    .str6 {stroke:#F8F5F6;stroke-width:0.32;stroke-miterlimit:22.9256}
    .fil5 {fill:#6B809B}
    .fil0 {fill:#34B0BE}
    .fil4 {fill:#34B0BE}
    .fil1 {fill:#ADADAD}
    .fil3 {fill:#ADADAD}
    .fil2 {fill:#ADADAD;fill-rule:nonzero}
   ]]>
  </style>
 </defs>
 <g id="Capa_x0020_1">
  <metadata id="CorelCorpID_0Corel-Layer"/>
  <path class="fil0 str0" d="M54.33 0.27l14.73 0 0 63.01c-2.57,1.05 -3.11,2.54 -3.23,5.78l-65.56 0 0 -14.73c0,-29.73 24.33,-54.06 54.06,-54.06z"/>
  <path class="fil0 str1" d="M86.76 140.69l-14.73 0 0 -68.79 68.79 0 0 14.73c0,29.73 -24.32,54.06 -54.06,54.06z"/>
  <path class="fil1 str2" d="M7.03 85.18l0 -13.28 58.75 0c0.15,2.48 0.98,4.32 3.28,5.1l0 56.93 -13.28 0c-26.82,0 -48.75,-21.94 -48.75,-48.75z"/>
  <path class="fil1 str3" d="M134.06 55.78l0 13.28 -62.03 0 0 -62.03 13.29 0c26.81,0 48.74,21.93 48.74,48.75z"/>
  <path class="fil2" d="M102.44 85.41c0.1,14.19 -15.31,23.25 -30.41,23.25 0,0 0,-11.61 0,-11.61 7.31,0.4 18.11,-3.93 17.98,-11.1 0,-8.51 0.13,-10.54 -10.67,-10.29 -6.5,0.15 -7.03,0.44 -7.31,-3.76l28.72 0c1.38,3.12 1.65,6.94 1.69,13.51zm-30.41 -16.35c0.08,-3.14 1.11,-4.69 6.7,-4.69 12.31,-0.02 17.34,0.17 20.56,4.69l-27.26 0zm-2.97 39.6c-21.1,-1.24 -34.43,-15.45 -35.11,-36.76 4.87,0 8.39,-0.02 13.26,0 0.47,13.31 7.06,23.2 21.85,24.88 0,2.93 0.02,9.15 0,11.88zm-35.12 -39.6c0.38,-22.43 13.3,-35.91 35.12,-37.06l0 12.96c-13.96,0.74 -21.55,10.64 -21.87,24.1l-13.25 0zm38.09 -37.16c0.41,-0.01 0.17,-0.01 0.58,-0.01 10.53,0 22.74,3.62 28.06,13.47 1.91,3.54 2.98,7.73 -0.29,10.86 -3.1,2.96 -8.2,2.66 -10.67,-0.86 -1.98,-2.83 -3.45,-5.08 -4.7,-6.59 -2.55,-3.06 -7.9,-3.89 -12.98,-3.9l0 -12.97z"/>
  <path class="fil3 str4" d="M47.19 69.06c0.32,-13.46 7.91,-23.36 21.87,-24.1l0 -12.96c-21.82,1.15 -34.74,14.63 -35.12,37.06l13.25 0z"/>
  <path class="fil4 str5" d="M85.01 48.77c1.25,1.51 2.72,3.76 4.7,6.59 2.47,3.52 7.57,3.82 10.67,0.86 3.27,-3.13 2.2,-7.32 0.29,-10.86 -5.32,-9.85 -17.53,-13.47 -28.06,-13.47 -0.41,0 -0.17,0 -0.58,0.01l0 12.97c5.08,0.01 10.43,0.84 12.98,3.9z"/>
  <path class="fil4 str5" d="M69.06 96.78c-14.79,-1.68 -21.38,-11.57 -21.85,-24.88l-13.26 0c0.68,21.31 14.01,35.52 35.11,36.76l0 -11.88z"/>
  <path class="fil5 str6" d="M72.03 69.06l27.26 0c-3.22,-4.52 -8.25,-4.71 -20.56,-4.69 -5.59,0 -6.62,1.55 -6.7,4.69z"/>
  <path class="fil4 str5" d="M72.03 69.06l27.26 0c-3.22,-4.52 -8.25,-4.71 -20.56,-4.69 -5.59,0 -6.62,1.55 -6.7,4.69z"/>
  <path class="fil3 str7" d="M90.01 85.95c0.13,7.17 -10.67,11.5 -17.98,11.1l0 11.61c15.1,0 30.51,-9.06 30.41,-23.25 -0.04,-6.57 -0.31,-10.39 -1.69,-13.51l-28.72 0c0,2.66 0.81,3.91 7.31,3.76 10.8,-0.25 10.67,1.78 10.67,10.29z"/>
 </g>
</svg>
